<?xml version="1.0" encoding="UTF-8"?>
<svg xmlns="http://www.w3.org/2000/svg" xmlns:xlink="http://www.w3.org/1999/xlink" width="447.02" height="209.52" viewBox="326.24 148.24 447.02 209.52">
<path fill-rule="nonzero" fill="#FFFFFF" fill-opacity="1" d="M 372.77 197.01 L 351.63 197.01 L 351.63 185.38 L 407.65 185.38 L 407.65 197.01 L 386.52 197.01 L 386.52 256.17 L 372.77 256.17 Z M 372.77 197.01 "/>
<path fill-rule="nonzero" fill="#FFFFFF" fill-opacity="1" d="M 423.53 217.74 L 447.9 217.74 L 451.44 214.2 L 451.44 200.45 L 447.9 196.91 L 423.53 196.91 Z M 465.39 232.71 L 465.39 256.17 L 451.64 256.17 L 451.64 235.84 L 445.57 229.07 L 423.53 229.07 L 423.53 256.17 L 409.77 256.17 L 409.77 185.38 L 454.17 185.38 L 464.98 196.3 L 464.98 217.74 L 458.11 224.72 Z M 465.39 232.71 "/>
<path fill-rule="nonzero" fill="#FFFFFF" fill-opacity="1" d="M 511.8 244.44 L 516.96 239.28 L 516.96 202.27 L 511.8 197.11 L 489.96 197.11 L 484.8 202.27 L 484.8 239.28 L 489.96 244.44 Z M 471.05 244.54 L 471.05 197.01 L 482.68 185.38 L 519.09 185.38 L 530.71 197.01 L 530.71 244.54 L 519.09 256.17 L 482.68 256.17 Z M 471.05 244.54 "/>
<path fill-rule="nonzero" fill="#FFFFFF" fill-opacity="1" d="M 536.88 244.04 L 536.88 185.38 L 550.63 185.38 L 550.63 239.28 L 555.79 244.44 L 575.61 244.44 L 580.77 239.28 L 580.77 185.38 L 594.52 185.38 L 594.52 244.04 L 582.39 256.17 L 549.02 256.17 Z M 536.88 244.04 "/>
<path fill-rule="nonzero" fill="#FFFFFF" fill-opacity="1" d="M 641.44 244.64 L 645.79 240.29 L 645.79 230.38 L 641.44 226.04 L 615.15 226.04 L 615.15 244.64 Z M 639.02 215.01 L 642.66 211.37 L 642.66 200.45 L 639.12 196.91 L 615.15 196.91 L 615.15 215.01 Z M 601.7 185.38 L 646.09 185.38 L 656.21 195.5 L 656.21 215.32 L 652.16 219.46 L 659.34 226.74 L 659.34 245.25 L 648.42 256.17 L 601.7 256.17 Z M 601.7 185.38 "/>
<path fill-rule="nonzero" fill="#FFFFFF" fill-opacity="1" d="M 663.48 185.38 L 677.24 185.38 L 677.24 244.54 L 712.63 244.54 L 712.63 256.17 L 663.48 256.17 Z M 663.48 185.38 "/>
<path fill-rule="nonzero" fill="#FFFFFF" fill-opacity="1" d="M 714.25 185.38 L 765.41 185.38 L 765.41 197.01 L 728 197.01 L 728 214.91 L 762.48 214.91 L 762.48 226.34 L 728 226.34 L 728 244.54 L 765.41 244.54 L 765.41 256.17 L 714.25 256.17 Z M 714.25 185.38 "/>
<path fill-rule="nonzero" fill="#FFFFFF" fill-opacity="1" d="M 360.57 325.52 L 360.57 315.41 L 374.12 315.41 L 374.12 321.38 L 377.46 324.71 L 398.39 324.71 L 401.83 321.27 L 401.83 309.54 L 398.49 306.21 L 371.7 306.21 L 360.77 295.29 L 360.77 276.58 L 371.7 265.66 L 403.65 265.66 L 414.57 276.58 L 414.57 286.79 L 401.02 286.79 L 401.02 280.72 L 397.68 277.39 L 377.66 277.39 L 374.32 280.72 L 374.32 291.14 L 377.66 294.48 L 404.46 294.48 L 415.38 305.4 L 415.38 325.32 L 404.25 336.44 L 371.49 336.44 Z M 360.57 325.52 "/>
<path fill-rule="nonzero" fill="#FFFFFF" fill-opacity="1" d="M 420.54 265.66 L 434.29 265.66 L 434.29 295.29 L 464.22 295.29 L 464.22 265.66 L 477.97 265.66 L 477.97 336.44 L 464.22 336.44 L 464.22 307.02 L 434.29 307.02 L 434.29 336.44 L 420.54 336.44 Z M 420.54 265.66 "/>
<path fill-rule="nonzero" fill="#FFFFFF" fill-opacity="1" d="M 524.89 324.71 L 530.05 319.55 L 530.05 282.54 L 524.89 277.39 L 503.05 277.39 L 497.89 282.54 L 497.89 319.55 L 503.05 324.71 Z M 484.14 324.81 L 484.14 277.29 L 495.77 265.66 L 532.17 265.66 L 543.8 277.29 L 543.8 324.81 L 532.17 336.44 L 495.77 336.44 Z M 484.14 324.81 "/>
<path fill-rule="nonzero" fill="#FFFFFF" fill-opacity="1" d="M 589.71 324.71 L 594.87 319.55 L 594.87 282.54 L 589.71 277.39 L 567.87 277.39 L 562.71 282.54 L 562.71 319.55 L 567.87 324.71 Z M 548.96 324.81 L 548.96 277.29 L 560.59 265.66 L 596.99 265.66 L 608.62 277.29 L 608.62 324.81 L 596.99 336.44 L 560.59 336.44 Z M 548.96 324.81 "/>
<path fill-rule="nonzero" fill="#FFFFFF" fill-opacity="1" d="M 629.35 277.29 L 608.21 277.29 L 608.21 265.66 L 664.23 265.66 L 664.23 277.29 L 643.1 277.29 L 643.1 336.44 L 629.35 336.44 Z M 629.35 277.29 "/>
<path fill-rule="nonzero" fill="#FFFFFF" fill-opacity="1" d="M 681.21 298.02 L 705.58 298.02 L 709.12 294.48 L 709.12 280.72 L 705.58 277.18 L 681.21 277.18 Z M 723.07 312.98 L 723.07 336.44 L 709.32 336.44 L 709.32 316.12 L 703.25 309.34 L 681.21 309.34 L 681.21 336.44 L 667.45 336.44 L 667.45 265.66 L 711.85 265.66 L 722.67 276.58 L 722.67 298.02 L 715.79 304.99 Z M 723.07 312.98 "/>
<path fill-rule="nonzero" fill="#FFFFFF" fill-opacity="1" d="M 749.59 349.64 L 747.85 349.64 L 747.85 342.37 L 749.59 342.37 Z M 749.59 349.64 "/>
<path fill-rule="nonzero" fill="#FFFFFF" fill-opacity="1" d="M 752.35 346.88 L 745.09 346.88 L 745.09 345.14 L 752.35 345.14 Z M 752.35 346.88 "/>
<path fill-rule="nonzero" fill="#FFFFFF" fill-opacity="1" d="M 338.66 163.47 L 336.93 163.47 L 336.93 156.2 L 338.66 156.2 Z M 338.66 163.47 "/>
<path fill-rule="nonzero" fill="#FFFFFF" fill-opacity="1" d="M 341.43 160.71 L 334.16 160.71 L 334.16 158.97 L 341.43 158.97 Z M 341.43 160.71 "/>
</svg>