<svg xmlns="http://www.w3.org/2000/svg" width="800" height="600" viewBox="0 0 800 600"><rect width="800" height="600" fill="#f3f3ef"/><g transform="translate(40 140) scale(3)"><rect x="8" y="36" width="224" height="30" rx="2" style="fill:#1d1d1d;stroke:#3d3d3d"/><path d="M8 38h12v26H8zM220 38h12v26h-12z" style="fill:#2a2a2a"/><path d="M26 42h14v18h-14zM43 42h14v18h-14zM60 42h14v18h-14zM77 42h14v18h-14zM94 42h14v18h-14zM111 42h14v18h-14zM128 42h14v18h-14zM145 42h14v18h-14zM162 42h14v18h-14zM179 42h14v18h-14z" style="fill:#2c2c2c;stroke:#5c5c5c"/><path d="M29 45h8M46 45h8M63 45h8M80 45h8M97 45h8M114 45h8M131 45h8M148 45h8M165 45h8M182 45h8M200 44v14M204 44v14M208 44v14" style="stroke:#8a8a8a"/><circle cx="214" cy="46" r="1.8" style="fill:#5cc47a"/><circle cx="214" cy="54" r="1.8" style="fill:#8a8a8a"/></g><text x="400" y="560" text-anchor="middle" font-family="Arial, sans-serif" font-size="18" fill="#9a9a94" letter-spacing="2">REPRESENTATIVE IMAGE</text></svg>
